inDegrees=no
num_controls=7
num_derivatives=13
num_iterations=74
num_multipliers=7
num_parameters=0
num_slacks=7
num_states=26
objective=0.338889
objective_accelerations=0.029131
objective_balance=0.001101
objective_effort=0.021618
objective_height=0.285542
objective_ligament=0.001496
solver_duration=759.462287
status=Solve_Succeeded
success=true
DataType=double
version=3
OpenSimVersion=4.5
endheader
time	/jointset/ground_pelvis/pelvis_tilt/value	/jointset/ground_pelvis/pelvis_tx/value	/jointset/ground_pelvis/pelvis_ty/value	/jointset/hip_r/hip_flexion_r/value	/jointset/hip_r/hip_adduction_r/value	/jointset/hip_r/hip_rotation_r/value	/jointset/back/lumbar_extension/value	/jointset/patellofemoral_r/patellar_flexion_r/value	/jointset/knee_r/knee_flexion_r/value	/jointset/knee_r/knee_adduction_r/value	/jointset/knee_r/knee_rotation_r/value	/jointset/ankle_r/ankle_angle_r/value	/jointset/subtalar_r/subtalar_angle_r/value	/jointset/ground_pelvis/pelvis_tilt/speed	/jointset/ground_pelvis/pelvis_tx/speed	/jointset/ground_pelvis/pelvis_ty/speed	/jointset/hip_r/hip_flexion_r/speed	/jointset/hip_r/hip_adduction_r/speed	/jointset/hip_r/hip_rotation_r/speed	/jointset/back/lumbar_extension/speed	/jointset/patellofemoral_r/patellar_flexion_r/speed	/jointset/knee_r/knee_flexion_r/speed	/jointset/knee_r/knee_adduction_r/speed	/jointset/knee_r/knee_rotation_r/speed	/jointset/ankle_r/ankle_angle_r/speed	/jointset/subtalar_r/subtalar_angle_r/speed	/forceset/tau_hip_flexion_r	/forceset/tau_hip_adduction_r	/forceset/tau_hip_rotation_r	/forceset/tau_knee_flexion_r	/forceset/tau_ankle_angle_r	/forceset/tau_subtalar_angle_r	/forceset/tau_lumbar_extension	lambda_cid13_p0	lambda_cid14_p0	lambda_cid14_p1	lambda_cid14_p2	lambda_cid14_p3	lambda_cid14_p4	lambda_cid14_p5	/jointset/ground_pelvis/pelvis_tilt/accel	/jointset/ground_pelvis/pelvis_tx/accel	/jointset/ground_pelvis/pelvis_ty/accel	/jointset/hip_r/hip_flexion_r/accel	/jointset/hip_r/hip_adduction_r/accel	/jointset/hip_r/hip_rotation_r/accel	/jointset/back/lumbar_extension/accel	/jointset/patellofemoral_r/patellar_flexion_r/accel	/jointset/knee_r/knee_flexion_r/accel	/jointset/knee_r/knee_adduction_r/accel	/jointset/knee_r/knee_rotation_r/accel	/jointset/ankle_r/ankle_angle_r/accel	/jointset/subtalar_r/subtalar_angle_r/accel	gamma_cid13_p0	gamma_cid14_p0	gamma_cid14_p1	gamma_cid14_p2	gamma_cid14_p3	gamma_cid14_p4	gamma_cid14_p5
0.5	-0.0986776976311553	0.05448618609428677	0.8408034741969965	0.7347620015459181	-0.2193982161021273	-0.1490212160515238	-0.6250740292034339	0.8322072809370828	0.8322072809370804	-0.03636740052682496	0.1745198512599407	0.2848376348972925	0.1405363675275171	-0.251804828567616	-0.1648908737885529	-0.3640832124917817	1.457749415851774	0.004853538638336146	0.1179633984791065	-0.7466889312550873	1.619546437756067	1.619546437756187	-0.4574894312860164	7.93354680801495e-05	0.5236503794259529	0.2156572278456673	-0.1674362958081414	0.01988848256597187	0.01472322536249321	-0.257312940663512	-0.02676481464007276	-0.005766540356629105	0.2190552399884071	-14.89860962028425	-51.5776649859458	-9.50923545300199	-0.3762689425690509	-0.6900035800942538	-643.830658105605	54.71713330521084	0.1538141491783956	0.4052591324974286	-0.332001784552063	-0.9717245168847758	-0.2330277998589351	-0.6827330570081871	1.419612372720406	-1.075839799837275	-1.075839799837225	0.295689799698867	0.01008065360571945	-0.3833353649029554	-0.2743790490211033	-4.936661979080097e-08	-5.265488905669573e-08	1.956882724814071e-07	-8.250915371413427e-07	1.468969486222695e-08	-1.441287998391093e-07	3.55295278647018e-07
0.51	-0.1011876022205994	0.05285769548020094	0.8371468227924761	0.7492888080120377	-0.2193618468589866	-0.1478743462694007	-0.6324690348858597	0.8483468075514239	0.8483468075514239	-0.04092514964024361	0.174521047056935	0.2900540033016406	0.1426779147447992	-0.2501315594788625	-0.16079289973316	-0.3671675707408648	1.447411441805204	0.002418757370079038	0.111457404321444	-0.7322208912666458	1.608140945071877	1.608140945071922	-0.4539824642162815	0.0001453480126254691	0.5195449198149318	0.2126044372561959	-0.1729179548115742	0.02141460688049318	0.01475720520536486	-0.2605358696035508	-0.02885726028550074	-0.005239532338857433	0.2242267790036438	-14.08691000903763	-52.46388105009336	-9.582429597111041	-0.1968005183244135	-0.4524390222606037	-647.3890534084162	54.64360189826115	0.1807587811064831	0.4142229050834006	-0.2847573459418689	-1.094905962614317	-0.2490627475424856	-0.6276262368822615	1.474096906475289	-1.205585424532997	-1.205585424544193	0.3898898496663215	0.002531511605125297	-0.4359112144670256	-0.3279739834694779	-4.628474799483925e-08	-5.776438508469534e-08	1.008362065985473e-07	-9.083508641569216e-07	2.775336934454907e-08	-1.457905079333728e-07	3.034695544582652e-07
0.52	-0.1036794390206817	0.05127061587927361	0.833461706905294	0.7637062203148758	-0.2193498973199738	-0.1467911551572043	-0.6397166207494878	0.8643657429545539	0.8643657429545665	-0.04544549114515722	0.1745224369707224	0.2952269651188256	0.1447874850722748	-0.2481912706947959	-0.1566086711568493	-0.3697761090241676	1.435870583195791	-3.040218751074777e-05	0.1052276644943013	-0.7172049674954294	1.595428195514762	1.595428195514733	-0.450007909584324	0.0001181588262186169	0.5149690619932966	0.2092618498843513	-0.1783996138150084	0.02294073119500534	0.01479118504829463	-0.2637587985435836	-0.0309497059309312	-0.004712524321102006	0.2293983180188799	-13.27324945201171	-53.35367342200194	-9.656636168004045	-0.01672930842061449	-0.2288822357746463	-650.9952871851823	54.61175053905665	0.2072180882410764	0.4225100366809191	-0.2368377913959955	-1.212301429453144	-0.2359034577254588	-0.6274821909042123	1.529189129275404	-1.33729117442212	-1.33729117442212	0.389207312143375	-0.008559692584720214	-0.4774150070257709	-0.3323384054957316	-4.297970853965072e-08	-6.4664829843114e-08	-1.686368585434076e-08	-9.974987016680022e-07	4.373320876042354e-08	-1.458565921371072e-07	2.290019212811434e-07
0.53	-0.1061506009892151	0.04972580467461794	0.8297529140907909	0.7780023132537059	-0.2193624067934203	-0.1457688308468125	-0.6468113554098825	0.8802511418615706	0.8802511418615712	-0.04992386507426527	0.1745230485581924	0.3003519371927433	0.1468623438078144	-0.2459997248013157	-0.1523393572617052	-0.3718994896160451	1.423151628861324	-0.002460675878051425	0.09923641213836677	-0.7016581652809968	1.581437112033589	1.58143711203359	-0.4456424891877035	1.285824252095734e-05	0.5099591755149434	0.2056843377922197	-0.1836672555509175	0.02424909018038105	0.01489322704264321	-0.2673434488052316	-0.03257319515453666	-0.004246799231759772	0.2344192769485339	-12.45963651130359	-54.10213115942715	-9.745342201474372	0.1800811812240324	-0.1134041935123049	-654.6641436328158	54.62524490498989	0.2313267447150269	0.4312843680326491	-0.1876727322969043	-1.331157894832395	-0.2451363277984077	-0.5851905000845685	1.579995662955525	-1.462179764426208	-1.462179764421525	0.4638366256867316	-0.01041044095862668	-0.5226967704802304	-0.3744285722806023	-3.978068623208382e-08	-7.060949590513694e-08	-1.194524192764202e-07	-1.071015204454561e-06	5.763849387377806e-08	-1.452613973681826e-07	1.605470735983526e-07
